<svg width="98" height="48" viewBox="0 0 98 48" fill="none" xmlns="http://www.w3.org/2000/svg">
<rect width="98" height="48" rx="24" fill="#E9D7C3" fill-opacity="0.7"/>
<path d="M30.0075 4.904C30.4395 4.904 30.6555 5.174 30.6555 5.714C30.6555 6.17 30.6015 6.662 30.4935 7.19C30.3975 7.718 30.2235 8.276 29.9715 8.864C29.7315 9.44 29.4375 9.974 29.0895 10.466C28.7535 10.946 28.3095 11.36 27.7575 11.708C27.2175 12.044 26.6235 12.248 25.9755 12.32C25.7595 13.004 25.4415 13.778 25.0215 14.642C24.6135 15.506 24.2415 16.13 23.9055 16.514C26.0175 17.582 27.7575 18.116 29.1255 18.116C29.6535 18.116 30.1275 17.96 30.5475 17.648C30.9795 17.348 31.1955 16.934 31.1955 16.406C31.1955 16.142 31.1175 15.884 30.9615 15.632C30.8055 15.38 30.7275 15.224 30.7275 15.164C30.7275 15.08 30.7455 15.002 30.7815 14.93C30.8295 14.846 30.8895 14.816 30.9615 14.84C31.1055 14.9 31.2435 15.11 31.3755 15.47C31.5195 15.818 31.5915 16.088 31.5915 16.28C31.5915 17.048 31.3095 17.648 30.7455 18.08C30.1935 18.512 29.5215 18.728 28.7295 18.728C28.5615 18.728 28.3815 18.716 28.1895 18.692C28.0095 18.668 27.8355 18.638 27.6675 18.602C27.5115 18.578 27.3255 18.53 27.1095 18.458C26.8935 18.398 26.7135 18.344 26.5695 18.296C26.4255 18.26 26.2335 18.188 25.9935 18.08C25.7535 17.984 25.5735 17.912 25.4535 17.864C25.3335 17.828 25.1475 17.75 24.8955 17.63C24.6435 17.51 24.4755 17.426 24.3915 17.378C24.3075 17.342 24.1335 17.258 23.8695 17.126C23.6055 17.006 23.4495 16.934 23.4015 16.91C22.5015 17.798 21.3795 18.242 20.0355 18.242C19.5075 18.242 19.0455 18.134 18.6495 17.918C18.2535 17.714 18.0555 17.372 18.0555 16.892C18.0555 16.4 18.2355 15.998 18.5955 15.686C18.9675 15.362 19.4055 15.2 19.9095 15.2C20.7135 15.2 21.8895 15.56 23.4375 16.28C23.9535 15.572 24.5775 14.24 25.3095 12.284C24.4935 12.284 23.8455 12.08 23.3655 11.672C22.8975 11.264 22.6635 10.67 22.6635 9.89C22.6635 9.578 22.7055 9.302 22.7895 9.062C22.8855 8.822 23.0235 8.702 23.2035 8.702C23.2635 8.702 23.2935 8.756 23.2935 8.864C23.2935 8.924 23.2815 9.05 23.2575 9.242C23.2335 9.422 23.2215 9.548 23.2215 9.62C23.2215 10.256 23.4015 10.808 23.7615 11.276C24.1215 11.744 24.6735 11.978 25.4175 11.978C25.4535 11.882 25.5555 11.588 25.7235 11.096C25.8915 10.604 26.0715 10.094 26.2635 9.566C26.4555 9.026 26.6595 8.48 26.8755 7.928C27.0915 7.376 27.3135 6.926 27.5415 6.578C27.7695 6.218 27.9615 6.038 28.1175 6.038C28.2855 6.038 28.4655 6.086 28.6575 6.182C28.8495 6.266 28.9455 6.38 28.9455 6.524C28.9455 6.632 28.8975 6.686 28.8015 6.686C28.7775 6.686 28.7535 6.662 28.7295 6.614C28.7055 6.566 28.6755 6.542 28.6395 6.542C28.4475 6.542 28.1715 6.92 27.8115 7.676C27.4515 8.432 27.0795 9.332 26.6955 10.376C26.3115 11.408 26.1135 11.936 26.1015 11.96C26.8695 11.792 27.5535 11.372 28.1535 10.7C28.7535 10.028 29.1975 9.278 29.4855 8.45C29.7735 7.61 29.9175 6.782 29.9175 5.966C29.9175 5.834 29.9115 5.708 29.8995 5.588C29.8875 5.468 29.8395 5.378 29.7555 5.318C29.6715 5.258 29.6295 5.198 29.6295 5.138C29.6295 4.982 29.7555 4.904 30.0075 4.904ZM23.0775 16.73C22.7775 16.586 22.2555 16.406 21.5115 16.19C20.7675 15.974 20.1315 15.866 19.6035 15.866C18.9315 15.878 18.5895 16.094 18.5775 16.514C18.5775 16.934 18.7875 17.252 19.2075 17.468C19.6275 17.696 20.1435 17.81 20.7555 17.81C21.6195 17.81 22.3935 17.45 23.0775 16.73ZM36.5568 7.1C36.5568 7.256 36.4428 7.454 36.2148 7.694C35.9868 7.934 35.8428 8.12 35.7828 8.252C35.6268 8.648 35.4588 8.87 35.2788 8.918C35.0388 8.918 34.9188 8.72 34.9188 8.324C34.9188 8.072 35.1048 7.796 35.4768 7.496C35.8488 7.196 36.1728 7.046 36.4488 7.046C36.5088 7.046 36.5448 7.064 36.5568 7.1ZM35.5308 10.178C35.5068 10.214 35.4228 10.364 35.2788 10.628C35.1468 10.892 35.0328 11.12 34.9368 11.312C34.8408 11.504 34.7088 11.786 34.5408 12.158C34.3728 12.53 34.2228 12.884 34.0908 13.22C33.9588 13.556 33.8208 13.958 33.6768 14.426C33.5328 14.894 33.4068 15.362 33.2988 15.83C33.2868 15.866 33.2808 15.914 33.2808 15.974C33.2808 16.118 33.3408 16.19 33.4608 16.19C33.5328 16.19 33.7248 16.1 34.0368 15.92C34.3608 15.74 34.5708 15.65 34.6668 15.65C34.7508 15.65 34.7988 15.674 34.8108 15.722C34.8108 15.866 34.5048 16.136 33.8928 16.532C33.2808 16.916 32.8608 17.108 32.6328 17.108C32.4048 17.108 32.2908 17 32.2908 16.784C32.2908 16.676 32.3148 16.55 32.3628 16.406C32.4948 16.034 32.6268 15.65 32.7588 15.254C32.9028 14.858 33.0108 14.552 33.0828 14.336C33.1548 14.12 33.2268 13.898 33.2988 13.67C33.3828 13.442 33.4428 13.274 33.4788 13.166C33.5148 13.046 33.5448 12.932 33.5688 12.824C33.6048 12.704 33.6288 12.614 33.6408 12.554C33.6528 12.494 33.6588 12.434 33.6588 12.374C33.6588 12.326 33.6468 12.284 33.6228 12.248C33.6108 12.2 33.6048 12.164 33.6048 12.14C33.6048 12.092 33.6228 12.014 33.6588 11.906C33.9228 11.15 34.1568 10.646 34.3608 10.394C34.5648 10.142 34.8648 10.016 35.2608 10.016C35.4168 10.016 35.5068 10.07 35.5308 10.178ZM39.2922 20.852C39.1842 21.464 38.6502 22.022 37.6902 22.526C36.7422 23.042 35.8422 23.3 34.9902 23.3C34.1142 23.3 33.6762 22.982 33.6762 22.346C33.6762 21.71 33.9702 20.816 34.5582 19.664C35.1462 18.524 35.6382 17.732 36.0342 17.288C36.0702 17.24 36.1902 17.18 36.3942 17.108C36.3342 17.072 36.2562 17.03 36.1602 16.982C36.0642 16.922 35.9802 16.88 35.9082 16.856C35.8482 16.82 35.7942 16.778 35.7462 16.73C35.6982 16.682 35.6742 16.634 35.6742 16.586C35.6742 16.454 35.7282 16.334 35.8362 16.226C35.9562 16.106 36.0762 16.046 36.1962 16.046H36.2682C37.0002 16.322 37.6902 16.928 38.3382 17.864C38.9862 18.8 39.3102 19.676 39.3102 20.492C39.3102 20.66 39.3042 20.78 39.2922 20.852ZM40.5702 11.708C40.5702 11.816 40.4802 11.87 40.3002 11.87H40.1382C40.1262 11.942 40.0962 12.092 40.0482 12.32C40.0122 12.536 39.9762 12.74 39.9402 12.932C39.9042 13.112 39.8742 13.232 39.8502 13.292C39.5502 14.06 39.1302 14.678 38.5902 15.146C38.0622 15.602 37.5102 15.83 36.9342 15.83C36.5982 15.83 36.3522 15.734 36.1962 15.542C36.0522 15.35 35.9802 15.044 35.9802 14.624C35.9802 13.592 36.2982 12.596 36.9342 11.636C37.5822 10.676 38.2602 10.196 38.9682 10.196C39.0282 10.196 39.1182 10.208 39.2382 10.232C39.2382 9.8 39.3942 9.584 39.7062 9.584C40.0542 9.584 40.2282 9.86 40.2282 10.412C40.2282 10.496 40.2222 10.64 40.2102 10.844C40.1982 11.048 40.1922 11.198 40.1922 11.294C40.2042 11.294 40.2282 11.306 40.2642 11.33C40.3002 11.354 40.3302 11.378 40.3542 11.402C40.3902 11.426 40.4262 11.456 40.4622 11.492C40.4982 11.528 40.5222 11.564 40.5342 11.6C40.5582 11.636 40.5702 11.672 40.5702 11.708ZM38.4462 21.086V20.852C38.4462 20.216 38.2722 19.58 37.9242 18.944C37.5882 18.308 37.1802 17.78 36.7002 17.36C36.6762 17.396 36.5262 17.606 36.2502 17.99C35.9862 18.374 35.7582 18.71 35.5662 18.998C35.3862 19.286 35.1762 19.634 34.9362 20.042C34.6962 20.462 34.5102 20.846 34.3782 21.194C34.2462 21.554 34.1802 21.86 34.1802 22.112C34.1802 22.604 34.4622 22.85 35.0262 22.85C35.6382 22.85 36.3522 22.646 37.1682 22.238C37.9962 21.83 38.4222 21.446 38.4462 21.086ZM39.4722 11.798C39.3402 11.774 39.2622 11.588 39.2382 11.24C39.2142 10.88 39.1302 10.7 38.9862 10.7C38.6142 10.7 38.2662 10.94 37.9422 11.42C37.6182 11.9 37.3662 12.374 37.1862 12.842C36.8862 13.658 36.7362 14.294 36.7362 14.75C36.7362 15.122 36.8862 15.308 37.1862 15.308C37.6302 15.308 38.1222 14.954 38.6622 14.246C39.2022 13.526 39.4722 12.71 39.4722 11.798ZM46.2757 10.628C45.6277 11.672 45.0217 12.836 44.4577 14.12C43.9057 15.392 43.6297 16.382 43.6297 17.09C43.6297 17.258 43.6777 17.342 43.7737 17.342C43.8097 17.342 43.9117 17.288 44.0797 17.18C44.2597 17.072 44.3677 17.018 44.4037 17.018C44.4637 17.018 44.4937 17.054 44.4937 17.126C44.4937 17.27 44.3797 17.42 44.1517 17.576C43.9237 17.744 43.7017 17.828 43.4857 17.828C43.1857 17.828 43.0357 17.606 43.0357 17.162C43.0357 16.646 43.2037 15.92 43.5397 14.984C43.8757 14.036 44.2117 13.178 44.5477 12.41C44.8837 11.63 45.0517 11.192 45.0517 11.096C45.0517 11.072 45.0457 11.06 45.0337 11.06C44.9857 11.06 44.8777 11.15 44.7097 11.33C43.9537 12.182 43.3177 13.016 42.8017 13.832C42.2857 14.636 41.9377 15.254 41.7577 15.686C41.5897 16.118 41.4097 16.466 41.2177 16.73C41.0377 16.982 40.8217 17.108 40.5697 17.108C40.4617 17.108 40.4077 17.048 40.4077 16.928C40.4077 16.82 40.4377 16.7 40.4977 16.568C40.8217 15.728 41.1337 14.858 41.4337 13.958C41.7337 13.058 42.0517 12.056 42.3877 10.952C42.7357 9.836 43.0177 8.954 43.2337 8.306C43.2697 8.198 43.2877 8.09 43.2877 7.982C43.2877 7.934 43.2817 7.892 43.2697 7.856C43.2577 7.808 43.2517 7.772 43.2517 7.748C43.2517 7.7 43.2697 7.622 43.3057 7.514C43.5817 6.746 43.8157 6.242 44.0077 6.002C44.1997 5.75 44.4937 5.624 44.8897 5.624C45.0457 5.624 45.1357 5.678 45.1597 5.786C43.8517 8.426 42.7897 11.234 41.9737 14.21C43.7617 11.414 45.1117 10.016 46.0237 10.016C46.2757 10.016 46.4017 10.1 46.4017 10.268C46.4017 10.376 46.3597 10.496 46.2757 10.628ZM48.5539 10.25L48.6259 9.998C48.6619 9.854 48.6799 9.752 48.6799 9.692C48.6799 9.644 48.6679 9.602 48.6439 9.566C48.6199 9.518 48.6079 9.476 48.6079 9.44C48.6079 9.404 48.6259 9.332 48.6619 9.224C48.9019 8.456 49.1179 7.946 49.3099 7.694C49.5139 7.442 49.8079 7.316 50.1919 7.316C50.3599 7.316 50.4559 7.37 50.4799 7.478C50.2159 8.042 49.8499 8.966 49.3819 10.25H51.1279C51.4639 10.25 51.6319 10.286 51.6319 10.358C51.6319 10.478 51.3559 10.574 50.8039 10.646C50.2519 10.706 49.7239 10.736 49.2199 10.736C48.6199 12.428 48.1339 14.048 47.7619 15.596C47.7019 15.836 47.6719 16.01 47.6719 16.118C47.6719 16.322 47.7379 16.424 47.8699 16.424C48.1099 16.424 48.4579 16.214 48.9139 15.794C49.3819 15.362 49.6339 15.146 49.6699 15.146C49.7299 15.146 49.7599 15.182 49.7599 15.254C49.7599 15.458 49.6939 15.59 49.5619 15.65C48.4579 16.646 47.6839 17.144 47.2399 17.144C46.9639 17.144 46.8259 16.97 46.8259 16.622C46.8259 16.43 46.9699 15.866 47.2579 14.93C47.2939 14.81 47.6779 13.436 48.4099 10.808C48.1219 10.856 47.7199 10.88 47.2039 10.88C46.9279 10.88 46.7899 10.826 46.7899 10.718C46.7899 10.634 46.8679 10.538 47.0239 10.43C47.1799 10.31 47.3059 10.25 47.4019 10.25H48.5539ZM58.1955 7.1C58.1955 7.256 58.0815 7.454 57.8535 7.694C57.6255 7.934 57.4815 8.12 57.4215 8.252C57.2655 8.648 57.0975 8.87 56.9175 8.918C56.6775 8.918 56.5575 8.72 56.5575 8.324C56.5575 8.072 56.7435 7.796 57.1155 7.496C57.4875 7.196 57.8115 7.046 58.0875 7.046C58.1475 7.046 58.1835 7.064 58.1955 7.1ZM57.1695 10.178C57.1455 10.214 57.0615 10.364 56.9175 10.628C56.7855 10.892 56.6715 11.12 56.5755 11.312C56.4795 11.504 56.3475 11.786 56.1795 12.158C56.0115 12.53 55.8615 12.884 55.7295 13.22C55.5975 13.556 55.4595 13.958 55.3155 14.426C55.1715 14.894 55.0455 15.362 54.9375 15.83C54.9255 15.866 54.9195 15.914 54.9195 15.974C54.9195 16.118 54.9795 16.19 55.0995 16.19C55.1715 16.19 55.3635 16.1 55.6755 15.92C55.9995 15.74 56.2095 15.65 56.3055 15.65C56.3895 15.65 56.4375 15.674 56.4495 15.722C56.4495 15.866 56.1435 16.136 55.5315 16.532C54.9195 16.916 54.4995 17.108 54.2715 17.108C54.0435 17.108 53.9295 17 53.9295 16.784C53.9295 16.676 53.9535 16.55 54.0015 16.406C54.1335 16.034 54.2655 15.65 54.3975 15.254C54.5415 14.858 54.6495 14.552 54.7215 14.336C54.7935 14.12 54.8655 13.898 54.9375 13.67C55.0215 13.442 55.0815 13.274 55.1175 13.166C55.1535 13.046 55.1835 12.932 55.2075 12.824C55.2435 12.704 55.2675 12.614 55.2795 12.554C55.2915 12.494 55.2975 12.434 55.2975 12.374C55.2975 12.326 55.2855 12.284 55.2615 12.248C55.2495 12.2 55.2435 12.164 55.2435 12.14C55.2435 12.092 55.2615 12.014 55.2975 11.906C55.5615 11.15 55.7955 10.646 55.9995 10.394C56.2035 10.142 56.5035 10.016 56.8995 10.016C57.0555 10.016 57.1455 10.07 57.1695 10.178ZM63.1089 10.304C62.4969 11.324 61.9269 12.494 61.3989 13.814C60.8709 15.134 60.6069 16.124 60.6069 16.784C60.6069 17 60.6549 17.108 60.7509 17.108C60.7869 17.108 60.9009 17.048 61.0929 16.928C61.2969 16.808 61.4169 16.748 61.4529 16.748C61.5249 16.748 61.5609 16.784 61.5609 16.856C61.5609 17 61.4289 17.162 61.1649 17.342C60.9009 17.522 60.6369 17.612 60.3729 17.612C60.0249 17.612 59.8509 17.354 59.8509 16.838C59.8509 16.37 59.9469 15.824 60.1389 15.2C60.3309 14.576 60.6309 13.778 61.0389 12.806C61.4469 11.834 61.6509 11.342 61.6509 11.33C61.7109 11.174 61.7409 11.054 61.7409 10.97C61.7409 10.91 61.7229 10.88 61.6869 10.88C61.6269 10.88 61.4949 10.988 61.2909 11.204C60.7749 11.78 60.0369 12.764 59.0769 14.156C58.1169 15.548 57.6249 16.406 57.6009 16.73C57.5889 16.814 57.4749 16.928 57.2589 17.072C57.0429 17.228 56.8629 17.306 56.7189 17.306C56.6349 17.306 56.5869 17.264 56.5749 17.18C56.5989 17.216 56.8209 16.616 57.2409 15.38C57.6729 14.144 57.9789 13.25 58.1589 12.698C58.2069 12.554 58.2309 12.446 58.2309 12.374C58.2309 12.326 58.2189 12.284 58.1949 12.248C58.1829 12.2 58.1769 12.164 58.1769 12.14C58.1769 12.092 58.1949 12.014 58.2309 11.906C58.5069 11.138 58.7409 10.634 58.9329 10.394C59.1249 10.142 59.4189 10.016 59.8149 10.016C59.9709 10.016 60.0609 10.07 60.0849 10.178C59.1009 12.194 58.5129 13.634 58.3209 14.498C60.3009 11.306 61.8189 9.71 62.8749 9.71C63.1149 9.71 63.2349 9.788 63.2349 9.944C63.2349 10.052 63.1929 10.172 63.1089 10.304ZM68.8215 10.25L68.8935 9.998C68.9295 9.854 68.9475 9.752 68.9475 9.692C68.9475 9.644 68.9355 9.602 68.9115 9.566C68.8875 9.518 68.8755 9.476 68.8755 9.44C68.8755 9.404 68.8935 9.332 68.9295 9.224C69.1695 8.456 69.3855 7.946 69.5775 7.694C69.7815 7.442 70.0755 7.316 70.4595 7.316C70.6275 7.316 70.7235 7.37 70.7475 7.478C70.4835 8.042 70.1175 8.966 69.6495 10.25H71.3955C71.7315 10.25 71.8995 10.286 71.8995 10.358C71.8995 10.478 71.6235 10.574 71.0715 10.646C70.5195 10.706 69.9915 10.736 69.4875 10.736C68.8875 12.428 68.4015 14.048 68.0295 15.596C67.9695 15.836 67.9395 16.01 67.9395 16.118C67.9395 16.322 68.0055 16.424 68.1375 16.424C68.3775 16.424 68.7255 16.214 69.1815 15.794C69.6495 15.362 69.9015 15.146 69.9375 15.146C69.9975 15.146 70.0275 15.182 70.0275 15.254C70.0275 15.458 69.9615 15.59 69.8295 15.65C68.7255 16.646 67.9515 17.144 67.5075 17.144C67.2315 17.144 67.0935 16.97 67.0935 16.622C67.0935 16.43 67.2375 15.866 67.5255 14.93C67.5615 14.81 67.9455 13.436 68.6775 10.808C68.3895 10.856 67.9875 10.88 67.4715 10.88C67.1955 10.88 67.0575 10.826 67.0575 10.718C67.0575 10.634 67.1355 10.538 67.2915 10.43C67.4475 10.31 67.5735 10.25 67.6695 10.25H68.8215ZM76.2815 10.628C75.6335 11.672 75.0275 12.836 74.4635 14.12C73.9115 15.392 73.6355 16.382 73.6355 17.09C73.6355 17.258 73.6835 17.342 73.7795 17.342C73.8155 17.342 73.9175 17.288 74.0855 17.18C74.2655 17.072 74.3735 17.018 74.4095 17.018C74.4695 17.018 74.4995 17.054 74.4995 17.126C74.4995 17.27 74.3855 17.42 74.1575 17.576C73.9295 17.744 73.7075 17.828 73.4915 17.828C73.1915 17.828 73.0415 17.606 73.0415 17.162C73.0415 16.646 73.2095 15.92 73.5455 14.984C73.8815 14.036 74.2175 13.178 74.5535 12.41C74.8895 11.63 75.0575 11.192 75.0575 11.096C75.0575 11.072 75.0515 11.06 75.0395 11.06C74.9915 11.06 74.8835 11.15 74.7155 11.33C73.9595 12.182 73.3235 13.016 72.8075 13.832C72.2915 14.636 71.9435 15.254 71.7635 15.686C71.5955 16.118 71.4155 16.466 71.2235 16.73C71.0435 16.982 70.8275 17.108 70.5755 17.108C70.4675 17.108 70.4135 17.048 70.4135 16.928C70.4135 16.82 70.4435 16.7 70.5035 16.568C70.8275 15.728 71.1395 14.858 71.4395 13.958C71.7395 13.058 72.0575 12.056 72.3935 10.952C72.7415 9.836 73.0235 8.954 73.2395 8.306C73.2755 8.198 73.2935 8.09 73.2935 7.982C73.2935 7.934 73.2875 7.892 73.2755 7.856C73.2635 7.808 73.2575 7.772 73.2575 7.748C73.2575 7.7 73.2755 7.622 73.3115 7.514C73.5875 6.746 73.8215 6.242 74.0135 6.002C74.2055 5.75 74.4995 5.624 74.8955 5.624C75.0515 5.624 75.1415 5.678 75.1655 5.786C73.8575 8.426 72.7955 11.234 71.9795 14.21C73.7675 11.414 75.1175 10.016 76.0295 10.016C76.2815 10.016 76.4075 10.1 76.4075 10.268C76.4075 10.376 76.3655 10.496 76.2815 10.628ZM80.5758 11.402C80.6478 11.774 80.6838 12.074 80.6838 12.302C80.6838 12.566 80.5938 12.794 80.4138 12.986C80.2338 13.166 79.9998 13.298 79.7118 13.382C79.4238 13.454 79.1658 13.508 78.9378 13.544C78.7098 13.568 78.4938 13.58 78.2898 13.58C78.1698 13.58 78.0318 13.58 77.8758 13.58C77.7318 13.568 77.6538 13.562 77.6418 13.562C77.2458 14.57 77.0478 15.362 77.0478 15.938C77.0478 16.418 77.2278 16.658 77.5878 16.658C77.8398 16.658 78.1338 16.502 78.4698 16.19C78.8058 15.866 79.0998 15.548 79.3518 15.236C79.6038 14.912 79.7538 14.75 79.8018 14.75C79.8858 14.75 79.9278 14.798 79.9278 14.894C79.9278 15.23 79.5978 15.698 78.9378 16.298C78.2778 16.886 77.7618 17.18 77.3898 17.18C77.0898 17.18 76.8138 17.09 76.5618 16.91C76.3218 16.718 76.2018 16.406 76.2018 15.974C76.2018 15.842 76.2198 15.686 76.2558 15.506C76.3398 15.05 76.4478 14.606 76.5798 14.174C76.7238 13.742 76.8018 13.478 76.8138 13.382C76.6338 13.334 76.5438 13.238 76.5438 13.094C76.5438 12.962 76.6458 12.896 76.8498 12.896H76.9758C77.4558 11.948 77.7318 11.402 77.8038 11.258C78.1398 10.622 78.7818 10.304 79.7298 10.304C80.1378 10.304 80.4198 10.67 80.5758 11.402ZM79.9278 12.266C79.9278 11.966 79.8978 11.708 79.8378 11.492C79.7778 11.276 79.7058 11.126 79.6218 11.042C79.5498 10.958 79.4718 10.916 79.3878 10.916C79.1478 10.916 78.8598 11.174 78.5238 11.69C78.1998 12.206 77.9598 12.662 77.8038 13.058C77.8278 13.058 77.9238 13.064 78.0918 13.076C78.2598 13.088 78.4038 13.094 78.5238 13.094C79.0158 13.094 79.3698 13.04 79.5858 12.932C79.8018 12.824 79.9158 12.602 79.9278 12.266ZM46.6931 27.066C46.8851 27.102 46.9811 27.24 46.9811 27.48C46.9811 27.648 46.9391 27.816 46.8551 27.984C46.7831 28.14 46.7051 28.218 46.6211 28.218C46.6091 28.218 46.5731 28.158 46.5131 28.038C46.4531 27.906 46.3511 27.78 46.2071 27.66C46.0751 27.54 45.9071 27.48 45.7031 27.48C45.1271 27.48 44.7071 27.816 44.4431 28.488C43.9151 29.844 43.5071 31.098 43.2191 32.25H44.9831C45.3191 32.25 45.4871 32.286 45.4871 32.358C45.4871 32.478 45.2111 32.574 44.6591 32.646C44.1071 32.706 43.5791 32.736 43.0751 32.736C43.0271 32.856 42.8771 33.336 42.6251 34.176C42.3851 35.016 42.1091 35.958 41.7971 37.002C41.4971 38.034 41.2691 38.796 41.1131 39.288C40.7171 40.536 40.2311 41.418 39.6551 41.934C39.0671 42.462 38.4791 42.726 37.8911 42.726C36.9671 42.726 36.5051 42.246 36.5051 41.286C36.5051 40.95 36.5591 40.638 36.6671 40.35C36.7631 40.062 36.8531 39.918 36.9371 39.918C36.9851 39.918 37.0151 39.954 37.0271 40.026C37.0031 40.266 36.9911 40.434 36.9911 40.53C36.9911 41.082 37.0991 41.526 37.3151 41.862C37.5311 42.198 37.7951 42.366 38.1071 42.366C38.3951 42.366 38.6891 42.21 38.9891 41.898C39.2891 41.598 39.5651 41.136 39.8171 40.512C40.1531 39.672 40.6031 38.328 41.1671 36.48C41.7431 34.632 42.1091 33.408 42.2651 32.808C41.9771 32.856 41.5751 32.88 41.0591 32.88C40.7831 32.88 40.6451 32.826 40.6451 32.718C40.6451 32.634 40.7231 32.538 40.8791 32.43C41.0351 32.31 41.1611 32.25 41.2571 32.25H42.4091C42.9611 30.294 43.3391 29.094 43.5431 28.65C43.6511 28.41 43.7651 28.2 43.8851 28.02C44.0171 27.84 44.1551 27.696 44.2991 27.588C44.4551 27.48 44.5991 27.396 44.7311 27.336C44.8631 27.264 45.0191 27.216 45.1991 27.192C45.3911 27.156 45.5471 27.132 45.6671 27.12C45.7991 27.108 45.9731 27.102 46.1891 27.102C46.4051 27.09 46.5731 27.078 46.6931 27.066ZM48.6364 33.636C48.8644 33.672 48.9784 33.738 48.9784 33.834C48.9784 33.93 48.8884 34.026 48.7084 34.122C48.5284 34.206 48.3664 34.248 48.2224 34.248C48.2224 35.652 47.8564 36.852 47.1244 37.848C46.3924 38.844 45.6664 39.342 44.9464 39.342C44.2504 39.342 43.9024 38.838 43.9024 37.83C43.9024 37.554 43.9264 37.278 43.9744 37.002C44.0344 36.69 44.1424 36.288 44.2984 35.796C44.4544 35.304 44.6584 34.77 44.9104 34.194C45.1624 33.618 45.4684 33.132 45.8284 32.736C46.2004 32.328 46.5724 32.124 46.9444 32.124H47.0704C47.0704 31.956 47.1184 31.812 47.2144 31.692C47.3104 31.572 47.4424 31.512 47.6104 31.512C47.7784 31.524 47.9284 31.878 48.0604 32.574C48.1924 33.258 48.3844 33.612 48.6364 33.636ZM47.7184 34.104C47.6104 34.044 47.4784 33.834 47.3224 33.474C47.1664 33.102 47.0584 32.916 46.9984 32.916C46.6264 32.916 46.1944 33.468 45.7024 34.572C45.2104 35.664 44.9044 36.528 44.7844 37.164C44.7364 37.44 44.7124 37.692 44.7124 37.92C44.7124 38.508 44.8804 38.802 45.2164 38.802C45.6964 38.802 46.2304 38.316 46.8184 37.344C47.4184 36.36 47.7184 35.28 47.7184 34.104ZM53.5278 33.69C53.4318 33.822 53.2998 33.954 53.1318 34.086C52.9758 34.206 52.8558 34.266 52.7718 34.266C52.6998 34.266 52.6638 34.23 52.6638 34.158C52.6638 34.11 52.7178 33.942 52.8258 33.654C52.9458 33.366 53.0058 33.168 53.0058 33.06C53.0058 32.976 52.9758 32.934 52.9158 32.934C52.4958 32.934 51.8718 33.582 51.0438 34.878C50.2278 36.174 49.6218 37.44 49.2258 38.676C49.1538 38.772 49.0398 38.868 48.8838 38.964C48.7278 39.06 48.5958 39.108 48.4878 39.108C48.4158 39.108 48.3618 39.078 48.3258 39.018C48.3258 38.694 48.3618 38.4 48.4338 38.136C48.5178 37.872 48.6198 37.716 48.7398 37.668C49.0038 36.672 49.1898 35.928 49.2978 35.436L49.4778 34.68C49.5018 34.596 49.5138 34.5 49.5138 34.392C49.5138 34.332 49.5018 34.278 49.4778 34.23C49.4538 34.182 49.4418 34.134 49.4418 34.086C49.4418 34.014 49.4538 33.948 49.4778 33.888C49.6698 33.132 49.8618 32.616 50.0538 32.34C50.2578 32.064 50.5518 31.926 50.9358 31.926C51.0798 31.926 51.1638 31.974 51.1878 32.07C51.1758 32.106 51.0858 32.316 50.9178 32.7C50.7618 33.084 50.6118 33.444 50.4678 33.78C50.3358 34.116 50.1858 34.542 50.0178 35.058C49.8498 35.574 49.7178 36.048 49.6218 36.48C50.0178 35.7 50.6298 34.764 51.4578 33.672C52.2858 32.568 52.9698 32.016 53.5098 32.016C53.7978 32.016 53.9418 32.196 53.9418 32.556C53.9418 32.928 53.8038 33.306 53.5278 33.69ZM62.7893 32.466C61.3373 35.034 60.4613 37.104 60.1613 38.676C60.1253 38.796 60.1073 38.916 60.1073 39.036C60.1073 39.204 60.1613 39.288 60.2693 39.288C60.3173 39.288 60.4373 39.228 60.6293 39.108C60.8333 39 60.9533 38.946 60.9893 38.946C61.0493 38.946 61.0793 38.982 61.0793 39.054C61.0793 39.21 60.9473 39.372 60.6833 39.54C60.4193 39.708 60.1553 39.792 59.8913 39.792C59.7113 39.792 59.5793 39.732 59.4953 39.612C59.4113 39.504 59.3693 39.312 59.3693 39.036C59.3693 38.76 59.4293 38.412 59.5493 37.992C59.6693 37.572 59.7893 37.218 59.9093 36.93C60.0293 36.63 60.1973 36.234 60.4133 35.742C60.6413 35.25 60.7733 34.956 60.8093 34.86C61.1813 33.984 61.3673 33.462 61.3673 33.294C61.3673 33.21 61.3373 33.168 61.2773 33.168C61.2413 33.168 61.1753 33.198 61.0793 33.258C60.4553 33.678 59.7953 34.356 59.0993 35.292C58.4033 36.228 57.8873 37.32 57.5513 38.568C57.5273 38.664 57.4013 38.778 57.1733 38.91C56.9453 39.03 56.7533 39.09 56.5973 39.09C56.4533 39.09 56.3813 39.036 56.3813 38.928V38.892L56.3993 38.856C56.7353 37.272 57.2993 35.43 58.0913 33.33C58.1513 33.174 58.1813 33.066 58.1813 33.006C58.1813 32.946 58.1633 32.916 58.1273 32.916C58.0673 32.916 57.9773 32.982 57.8573 33.114C57.0893 34.002 56.4113 34.884 55.8233 35.76C55.2353 36.636 54.8213 37.302 54.5813 37.758C54.3533 38.214 54.1253 38.586 53.8973 38.874C53.6693 39.162 53.4293 39.306 53.1773 39.306C53.0813 39.306 53.0333 39.258 53.0333 39.162C53.0333 39.078 53.0573 38.97 53.1053 38.838C53.1653 38.706 53.2253 38.574 53.2853 38.442C53.3573 38.31 53.3993 38.232 53.4113 38.208C53.6033 37.74 53.9993 36.57 54.5993 34.698C54.6473 34.554 54.6713 34.446 54.6713 34.374C54.6713 34.326 54.6593 34.284 54.6353 34.248C54.6233 34.2 54.6173 34.164 54.6173 34.14C54.6173 34.092 54.6353 34.014 54.6713 33.906C54.9353 33.15 55.1693 32.646 55.3733 32.394C55.5773 32.142 55.8713 32.016 56.2553 32.016C56.4113 32.016 56.5013 32.07 56.5253 32.178C55.5413 34.194 54.9533 35.634 54.7613 36.498C56.7653 33.306 58.2833 31.71 59.3153 31.71C59.5553 31.71 59.6753 31.788 59.6753 31.944C59.6753 32.052 59.6333 32.172 59.5493 32.304C58.5053 34.068 57.8453 35.622 57.5693 36.966C58.1573 35.802 58.7153 34.902 59.2433 34.266C59.7833 33.618 60.5813 32.91 61.6373 32.142C61.8653 31.962 62.1653 31.872 62.5373 31.872C62.7773 31.872 62.8973 31.956 62.8973 32.124C62.8973 32.208 62.8613 32.322 62.7893 32.466Z" fill="#2F3237"/>
</svg>
